<svg width="1280" height="1280" viewBox="0 0 1280 1280" fill="none" xmlns="http://www.w3.org/2000/svg">
<path d="M337.943 426.871H942.111C957.475 426.869 972.659 430.19 986.62 436.606C1000.58 443.022 1012.99 452.38 1023 464.041C1033 475.702 1040.37 489.388 1044.59 504.162C1048.81 518.935 1049.79 534.447 1047.45 549.633L980.58 983.991C974.775 1021.74 955.647 1056.16 926.658 1081.02C897.67 1105.89 860.736 1119.55 822.545 1119.54H457.455C419.273 1119.54 382.352 1105.87 353.375 1081.01C324.397 1056.14 305.277 1021.73 299.473 983.991L232.604 549.633C230.268 534.447 231.244 518.935 235.465 504.162C239.686 489.388 247.052 475.702 257.057 464.041C267.063 452.38 279.472 443.022 293.433 436.606C307.394 430.19 322.578 426.869 337.943 426.871Z" stroke="#f3bc77" stroke-width="31.9694" stroke-linecap="round" stroke-linejoin="round"/>
<path d="M480.153 423.887V320.307C480.153 277.913 496.994 237.255 526.971 207.278C556.948 177.301 597.606 160.46 640 160.46C682.394 160.46 723.052 177.301 753.029 207.278C783.006 237.255 799.847 277.913 799.847 320.307V423.887" stroke="#f3bc77" stroke-width="31.9694" stroke-linecap="round" stroke-linejoin="round"/>
<path d="M818.81 843.873L768.773 818.855C754.217 811.64 741.974 800.491 733.433 786.672C724.891 772.852 720.394 756.916 720.45 740.67V689.286C720.45 686.504 719.344 683.836 717.377 681.869C715.41 679.902 712.742 678.797 709.96 678.797C686.784 678.769 664.565 669.55 648.178 653.162C631.79 636.775 622.571 614.556 622.543 591.38C622.542 589.429 621.996 587.517 620.968 585.859C619.939 584.201 618.469 582.863 616.721 581.995C614.974 581.126 613.019 580.763 611.077 580.945C609.134 581.126 607.281 581.846 605.725 583.023L471.103 685.143L470.841 685.335C468.168 687.489 465.977 690.18 464.412 693.236C462.846 696.291 461.941 699.641 461.755 703.069C461.568 706.497 462.105 709.925 463.33 713.132C464.555 716.339 466.441 719.252 468.866 721.683L667.685 920.485C669.651 922.453 672.317 923.56 675.098 923.562H807.866C814.357 923.562 820.583 920.983 825.173 916.393C829.764 911.803 832.342 905.577 832.342 899.085V865.762C832.354 861.215 831.092 856.755 828.701 852.886C826.31 849.018 822.884 845.896 818.81 843.873ZM811.363 899.085C811.363 900.013 810.994 900.902 810.338 901.558C809.683 902.214 808.793 902.582 807.866 902.582H679.434L483.709 706.77C483.369 706.432 483.102 706.028 482.924 705.583C482.747 705.138 482.663 704.661 482.677 704.182C482.702 703.711 482.821 703.25 483.029 702.826C483.236 702.403 483.527 702.025 483.884 701.717L508.99 682.678L578.923 752.611C580.894 754.553 583.553 755.637 586.321 755.628C589.088 755.618 591.739 754.515 593.697 752.56C595.655 750.604 596.761 747.954 596.774 745.186C596.787 742.419 595.706 739.759 593.766 737.785L525.879 669.898L603.312 611.136C607.636 634.257 619.349 655.35 636.689 671.243C654.03 687.136 676.06 696.971 699.47 699.269V740.67C699.4 760.813 704.976 780.573 715.567 797.708C726.157 814.844 741.337 828.668 759.385 837.614L809.422 862.65C810.002 862.939 810.49 863.382 810.833 863.932C811.176 864.481 811.359 865.115 811.363 865.762V899.085ZM540.022 867.616H472.187C469.405 867.616 466.737 866.51 464.77 864.543C462.803 862.576 461.698 859.908 461.698 857.126C461.698 854.344 462.803 851.675 464.77 849.708C466.737 847.741 469.405 846.636 472.187 846.636H540.022C542.805 846.636 545.473 847.741 547.44 849.708C549.407 851.675 550.512 854.344 550.512 857.126C550.512 859.908 549.407 862.576 547.44 864.543C545.473 866.51 542.805 867.616 540.022 867.616ZM606.459 913.072C606.459 915.854 605.354 918.522 603.386 920.49C601.419 922.457 598.751 923.562 595.969 923.562H500.161C497.379 923.562 494.71 922.457 492.743 920.49C490.776 918.522 489.671 915.854 489.671 913.072C489.671 910.29 490.776 907.622 492.743 905.655C494.71 903.687 497.379 902.582 500.161 902.582H595.969C598.751 902.582 601.419 903.687 603.386 905.655C605.354 907.622 606.459 910.29 606.459 913.072Z"  fill="#f28c28"/>
</svg>
